<mxfile host="Electron" modified="2023-09-12T15:49:08.822Z" agent="Mozilla/5.0 (X11; Linux x86_64) AppleWebKit/537.36 (KHTML, like Gecko) draw.io/21.6.8 Chrome/114.0.5735.289 Electron/25.5.0 Safari/537.36" etag="wnCCnIwRcZOcAMn7tCjS" version="21.6.8" type="device">
  <diagram name="Page-1" id="Rvv_j3SJVuH3c3LjiXdO">
    <mxGraphModel dx="1364" dy="2063" grid="1" gridSize="10" guides="1" tooltips="1" connect="1" arrows="1" fold="1" page="1" pageScale="1" pageWidth="850" pageHeight="1100" math="0" shadow="0">
      <root>
        <mxCell id="0" />
        <mxCell id="1" parent="0" />
        <mxCell id="A0bwb3W7G9OGuWa9BE-2-57" style="edgeStyle=orthogonalEdgeStyle;shape=connector;rounded=0;orthogonalLoop=1;jettySize=auto;html=1;entryX=0.5;entryY=0;entryDx=0;entryDy=0;labelBackgroundColor=none;strokeColor=default;fontFamily=Helvetica;fontSize=11;fontColor=default;endArrow=none;endFill=0;" parent="1" source="t1T4R1C1Q-HxB1gUp0i3-1" target="A0bwb3W7G9OGuWa9BE-2-56" edge="1">
          <mxGeometry relative="1" as="geometry" />
        </mxCell>
        <mxCell id="t1T4R1C1Q-HxB1gUp0i3-1" value="Mundo" style="rounded=0;whiteSpace=wrap;html=1;labelBackgroundColor=none;" parent="1" vertex="1">
          <mxGeometry x="70" y="-600" width="120" height="60" as="geometry" />
        </mxCell>
        <mxCell id="t1T4R1C1Q-HxB1gUp0i3-21" value="(1, 1)" style="text;html=1;align=center;verticalAlign=middle;resizable=0;points=[];autosize=1;strokeColor=none;fillColor=none;labelBackgroundColor=none;rounded=0;" parent="1" vertex="1">
          <mxGeometry x="131" y="-505" width="50" height="30" as="geometry" />
        </mxCell>
        <mxCell id="t1T4R1C1Q-HxB1gUp0i3-22" value="(1, N)" style="text;html=1;align=center;verticalAlign=middle;resizable=0;points=[];autosize=1;strokeColor=none;fillColor=none;labelBackgroundColor=none;rounded=0;" parent="1" vertex="1">
          <mxGeometry x="131" y="-140" width="50" height="30" as="geometry" />
        </mxCell>
        <mxCell id="t1T4R1C1Q-HxB1gUp0i3-23" value="(1,1)" style="text;html=1;align=center;verticalAlign=middle;resizable=0;points=[];autosize=1;strokeColor=none;fillColor=none;labelBackgroundColor=none;rounded=0;" parent="1" vertex="1">
          <mxGeometry x="130" y="-232" width="50" height="30" as="geometry" />
        </mxCell>
        <mxCell id="t1T4R1C1Q-HxB1gUp0i3-25" value="(1,1)" style="text;html=1;align=center;verticalAlign=middle;resizable=0;points=[];autosize=1;strokeColor=none;fillColor=none;labelBackgroundColor=none;rounded=0;" parent="1" vertex="1">
          <mxGeometry x="560" y="-80" width="50" height="30" as="geometry" />
        </mxCell>
        <mxCell id="t1T4R1C1Q-HxB1gUp0i3-26" value="(1,N)" style="text;html=1;align=center;verticalAlign=middle;resizable=0;points=[];autosize=1;strokeColor=none;fillColor=none;labelBackgroundColor=none;rounded=0;" parent="1" vertex="1">
          <mxGeometry x="131" y="-400" width="50" height="30" as="geometry" />
        </mxCell>
        <mxCell id="t1T4R1C1Q-HxB1gUp0i3-27" value="(1,N)" style="text;html=1;align=center;verticalAlign=middle;resizable=0;points=[];autosize=1;strokeColor=none;fillColor=none;labelBackgroundColor=none;rounded=0;" parent="1" vertex="1">
          <mxGeometry x="350" y="-75" width="50" height="30" as="geometry" />
        </mxCell>
        <mxCell id="t1T4R1C1Q-HxB1gUp0i3-28" value="(1,1)" style="text;html=1;align=center;verticalAlign=middle;resizable=0;points=[];autosize=1;strokeColor=none;fillColor=none;labelBackgroundColor=none;rounded=0;" parent="1" vertex="1">
          <mxGeometry x="220" y="-83" width="50" height="30" as="geometry" />
        </mxCell>
        <mxCell id="A0bwb3W7G9OGuWa9BE-2-149" style="shape=connector;rounded=0;orthogonalLoop=1;jettySize=auto;html=1;entryX=0.5;entryY=0;entryDx=0;entryDy=0;labelBackgroundColor=none;strokeColor=default;fontFamily=Helvetica;fontSize=11;fontColor=default;endArrow=none;endFill=0;" parent="1" source="t1T4R1C1Q-HxB1gUp0i3-29" target="t1T4R1C1Q-HxB1gUp0i3-66" edge="1">
          <mxGeometry relative="1" as="geometry" />
        </mxCell>
        <mxCell id="A0bwb3W7G9OGuWa9BE-2-150" style="edgeStyle=orthogonalEdgeStyle;shape=connector;rounded=0;orthogonalLoop=1;jettySize=auto;html=1;entryX=0.5;entryY=0;entryDx=0;entryDy=0;labelBackgroundColor=none;strokeColor=default;fontFamily=Helvetica;fontSize=11;fontColor=default;endArrow=none;endFill=0;" parent="1" source="t1T4R1C1Q-HxB1gUp0i3-29" target="A0bwb3W7G9OGuWa9BE-2-65" edge="1">
          <mxGeometry relative="1" as="geometry" />
        </mxCell>
        <mxCell id="A0bwb3W7G9OGuWa9BE-2-173" style="edgeStyle=orthogonalEdgeStyle;shape=connector;rounded=0;orthogonalLoop=1;jettySize=auto;html=1;labelBackgroundColor=none;strokeColor=default;fontFamily=Helvetica;fontSize=11;fontColor=default;endArrow=none;endFill=0;" parent="1" source="t1T4R1C1Q-HxB1gUp0i3-29" edge="1">
          <mxGeometry relative="1" as="geometry">
            <mxPoint x="940" y="491" as="targetPoint" />
          </mxGeometry>
        </mxCell>
        <mxCell id="t1T4R1C1Q-HxB1gUp0i3-29" value="&lt;div&gt;Personagem Humanoide&lt;/div&gt;" style="rounded=0;whiteSpace=wrap;html=1;labelBackgroundColor=none;" parent="1" vertex="1">
          <mxGeometry x="735" y="461" width="120" height="60" as="geometry" />
        </mxCell>
        <mxCell id="A0bwb3W7G9OGuWa9BE-2-45" style="edgeStyle=orthogonalEdgeStyle;shape=connector;rounded=0;orthogonalLoop=1;jettySize=auto;html=1;entryX=0.5;entryY=0;entryDx=0;entryDy=0;labelBackgroundColor=none;strokeColor=default;fontFamily=Helvetica;fontSize=11;fontColor=default;endArrow=none;endFill=0;exitX=0.75;exitY=1;exitDx=0;exitDy=0;" parent="1" source="t1T4R1C1Q-HxB1gUp0i3-33" target="A0bwb3W7G9OGuWa9BE-2-43" edge="1">
          <mxGeometry relative="1" as="geometry" />
        </mxCell>
        <mxCell id="A0bwb3W7G9OGuWa9BE-2-157" style="edgeStyle=orthogonalEdgeStyle;shape=connector;rounded=0;orthogonalLoop=1;jettySize=auto;html=1;exitX=0.25;exitY=1;exitDx=0;exitDy=0;entryX=0;entryY=0;entryDx=35;entryDy=0;entryPerimeter=0;labelBackgroundColor=none;strokeColor=default;fontFamily=Helvetica;fontSize=11;fontColor=default;endArrow=none;endFill=0;" parent="1" source="t1T4R1C1Q-HxB1gUp0i3-33" target="A0bwb3W7G9OGuWa9BE-2-155" edge="1">
          <mxGeometry relative="1" as="geometry" />
        </mxCell>
        <mxCell id="t1T4R1C1Q-HxB1gUp0i3-33" value="NPC" style="rounded=0;whiteSpace=wrap;html=1;labelBackgroundColor=none;" parent="1" vertex="1">
          <mxGeometry x="869" y="120" width="120" height="60" as="geometry" />
        </mxCell>
        <mxCell id="A0bwb3W7G9OGuWa9BE-2-95" style="edgeStyle=orthogonalEdgeStyle;shape=connector;rounded=0;orthogonalLoop=1;jettySize=auto;html=1;exitX=0.75;exitY=1;exitDx=0;exitDy=0;entryX=0;entryY=0.5;entryDx=0;entryDy=0;labelBackgroundColor=none;strokeColor=default;fontFamily=Helvetica;fontSize=11;fontColor=default;endArrow=none;endFill=0;" parent="1" source="t1T4R1C1Q-HxB1gUp0i3-34" target="A0bwb3W7G9OGuWa9BE-2-94" edge="1">
          <mxGeometry relative="1" as="geometry" />
        </mxCell>
        <mxCell id="t1T4R1C1Q-HxB1gUp0i3-34" value="PC" style="rounded=0;whiteSpace=wrap;html=1;labelBackgroundColor=none;" parent="1" vertex="1">
          <mxGeometry x="1090" y="120" width="120" height="60" as="geometry" />
        </mxCell>
        <mxCell id="t1T4R1C1Q-HxB1gUp0i3-44" value="Espécie" style="rounded=0;whiteSpace=wrap;html=1;labelBackgroundColor=none;" parent="1" vertex="1">
          <mxGeometry x="735" y="642" width="120" height="60" as="geometry" />
        </mxCell>
        <mxCell id="t1T4R1C1Q-HxB1gUp0i3-47" value="Vestimenta" style="rounded=0;whiteSpace=wrap;html=1;labelBackgroundColor=none;" parent="1" vertex="1">
          <mxGeometry x="1730" y="1190" width="120" height="60" as="geometry" />
        </mxCell>
        <mxCell id="A0bwb3W7G9OGuWa9BE-2-139" style="edgeStyle=orthogonalEdgeStyle;shape=connector;rounded=0;orthogonalLoop=1;jettySize=auto;html=1;entryX=0;entryY=0.5;entryDx=0;entryDy=0;labelBackgroundColor=none;strokeColor=default;fontFamily=Helvetica;fontSize=11;fontColor=default;endArrow=none;endFill=0;" parent="1" source="t1T4R1C1Q-HxB1gUp0i3-48" target="A0bwb3W7G9OGuWa9BE-2-138" edge="1">
          <mxGeometry relative="1" as="geometry" />
        </mxCell>
        <mxCell id="t1T4R1C1Q-HxB1gUp0i3-48" value="Inventário" style="rounded=0;whiteSpace=wrap;html=1;labelBackgroundColor=none;" parent="1" vertex="1">
          <mxGeometry x="1367.5" y="730" width="120" height="60" as="geometry" />
        </mxCell>
        <mxCell id="A0bwb3W7G9OGuWa9BE-2-121" style="edgeStyle=orthogonalEdgeStyle;shape=connector;rounded=0;orthogonalLoop=1;jettySize=auto;html=1;entryX=0.5;entryY=0;entryDx=0;entryDy=0;labelBackgroundColor=none;strokeColor=default;fontFamily=Helvetica;fontSize=11;fontColor=default;endArrow=none;endFill=0;" parent="1" source="t1T4R1C1Q-HxB1gUp0i3-59" target="A0bwb3W7G9OGuWa9BE-2-120" edge="1">
          <mxGeometry relative="1" as="geometry" />
        </mxCell>
        <mxCell id="t1T4R1C1Q-HxB1gUp0i3-59" value="Arma" style="rounded=0;whiteSpace=wrap;html=1;labelBackgroundColor=none;" parent="1" vertex="1">
          <mxGeometry x="1380" y="1200" width="120" height="60" as="geometry" />
        </mxCell>
        <mxCell id="t1T4R1C1Q-HxB1gUp0i3-66" value="Eqp_bota" style="ellipse;whiteSpace=wrap;html=1;labelBackgroundColor=none;rounded=0;" parent="1" vertex="1">
          <mxGeometry x="595" y="454" width="80" height="40" as="geometry" />
        </mxCell>
        <mxCell id="t1T4R1C1Q-HxB1gUp0i3-67" value="Eqp_cabeça" style="ellipse;whiteSpace=wrap;html=1;labelBackgroundColor=none;rounded=0;" parent="1" vertex="1">
          <mxGeometry x="595" y="694" width="80" height="40" as="geometry" />
        </mxCell>
        <mxCell id="t1T4R1C1Q-HxB1gUp0i3-68" value="Eqp_colar" style="ellipse;whiteSpace=wrap;html=1;labelBackgroundColor=none;rounded=0;" parent="1" vertex="1">
          <mxGeometry x="595" y="574" width="80" height="40" as="geometry" />
        </mxCell>
        <mxCell id="t1T4R1C1Q-HxB1gUp0i3-69" value="Eqp_anel" style="ellipse;whiteSpace=wrap;html=1;labelBackgroundColor=none;rounded=0;" parent="1" vertex="1">
          <mxGeometry x="595" y="654" width="80" height="40" as="geometry" />
        </mxCell>
        <mxCell id="t1T4R1C1Q-HxB1gUp0i3-70" value="Eqp_peitoral" style="ellipse;whiteSpace=wrap;html=1;labelBackgroundColor=none;rounded=0;" parent="1" vertex="1">
          <mxGeometry x="595" y="614" width="80" height="40" as="geometry" />
        </mxCell>
        <mxCell id="t1T4R1C1Q-HxB1gUp0i3-71" value="Eqp_calça" style="ellipse;whiteSpace=wrap;html=1;labelBackgroundColor=none;rounded=0;" parent="1" vertex="1">
          <mxGeometry x="595" y="534" width="80" height="40" as="geometry" />
        </mxCell>
        <mxCell id="t1T4R1C1Q-HxB1gUp0i3-72" value="Eqp_luva" style="ellipse;whiteSpace=wrap;html=1;labelBackgroundColor=none;rounded=0;" parent="1" vertex="1">
          <mxGeometry x="595" y="494" width="80" height="40" as="geometry" />
        </mxCell>
        <mxCell id="t1T4R1C1Q-HxB1gUp0i3-73" value="&lt;div&gt;Encantamento&lt;/div&gt;&lt;div&gt;de Vestimenta&lt;br&gt;&lt;/div&gt;" style="rounded=0;whiteSpace=wrap;html=1;labelBackgroundColor=none;" parent="1" vertex="1">
          <mxGeometry x="1730" y="1420" width="120" height="60" as="geometry" />
        </mxCell>
        <mxCell id="A0bwb3W7G9OGuWa9BE-2-122" style="edgeStyle=orthogonalEdgeStyle;shape=connector;rounded=0;orthogonalLoop=1;jettySize=auto;html=1;labelBackgroundColor=none;strokeColor=default;fontFamily=Helvetica;fontSize=11;fontColor=default;endArrow=none;endFill=0;" parent="1" source="t1T4R1C1Q-HxB1gUp0i3-79" target="A0bwb3W7G9OGuWa9BE-2-120" edge="1">
          <mxGeometry relative="1" as="geometry" />
        </mxCell>
        <mxCell id="t1T4R1C1Q-HxB1gUp0i3-79" value="Encantamento de Arma" style="rounded=0;whiteSpace=wrap;html=1;labelBackgroundColor=none;" parent="1" vertex="1">
          <mxGeometry x="1380" y="1420" width="120" height="60" as="geometry" />
        </mxCell>
        <mxCell id="A0bwb3W7G9OGuWa9BE-2-115" style="edgeStyle=orthogonalEdgeStyle;shape=connector;rounded=0;orthogonalLoop=1;jettySize=auto;html=1;entryX=0;entryY=0;entryDx=35;entryDy=0;entryPerimeter=0;labelBackgroundColor=none;strokeColor=default;fontFamily=Helvetica;fontSize=11;fontColor=default;endArrow=none;endFill=0;" parent="1" source="t1T4R1C1Q-HxB1gUp0i3-85" target="A0bwb3W7G9OGuWa9BE-2-114" edge="1">
          <mxGeometry relative="1" as="geometry" />
        </mxCell>
        <mxCell id="A0bwb3W7G9OGuWa9BE-2-136" style="edgeStyle=orthogonalEdgeStyle;shape=connector;rounded=0;orthogonalLoop=1;jettySize=auto;html=1;entryX=0;entryY=0.5;entryDx=0;entryDy=0;labelBackgroundColor=none;strokeColor=default;fontFamily=Helvetica;fontSize=11;fontColor=default;endArrow=none;endFill=0;" parent="1" source="t1T4R1C1Q-HxB1gUp0i3-85" target="A0bwb3W7G9OGuWa9BE-2-134" edge="1">
          <mxGeometry relative="1" as="geometry" />
        </mxCell>
        <mxCell id="t1T4R1C1Q-HxB1gUp0i3-85" value="Item" style="rounded=0;whiteSpace=wrap;html=1;labelBackgroundColor=none;" parent="1" vertex="1">
          <mxGeometry x="1580" y="960" width="120" height="60" as="geometry" />
        </mxCell>
        <mxCell id="t1T4R1C1Q-HxB1gUp0i3-92" style="edgeStyle=orthogonalEdgeStyle;rounded=0;orthogonalLoop=1;jettySize=auto;html=1;exitX=0.5;exitY=1;exitDx=0;exitDy=0;labelBackgroundColor=none;fontColor=default;" parent="1" edge="1">
          <mxGeometry relative="1" as="geometry">
            <mxPoint x="1861.5" y="950" as="sourcePoint" />
            <mxPoint x="1861.5" y="950" as="targetPoint" />
          </mxGeometry>
        </mxCell>
        <mxCell id="t1T4R1C1Q-HxB1gUp0i3-120" value="(0,N)" style="text;html=1;align=center;verticalAlign=middle;resizable=0;points=[];autosize=1;strokeColor=none;fillColor=none;labelBackgroundColor=none;rounded=0;" parent="1" vertex="1">
          <mxGeometry x="710" y="-78" width="50" height="30" as="geometry" />
        </mxCell>
        <mxCell id="t1T4R1C1Q-HxB1gUp0i3-124" value="(1,1)" style="text;html=1;align=center;verticalAlign=middle;resizable=0;points=[];autosize=1;strokeColor=none;fillColor=none;labelBackgroundColor=none;rounded=0;" parent="1" vertex="1">
          <mxGeometry x="570" y="50" width="50" height="30" as="geometry" />
        </mxCell>
        <mxCell id="t1T4R1C1Q-HxB1gUp0i3-125" value="(0,N)" style="text;html=1;align=center;verticalAlign=middle;resizable=0;points=[];autosize=1;strokeColor=none;fillColor=none;labelBackgroundColor=none;rounded=0;" parent="1" vertex="1">
          <mxGeometry x="710" y="40" width="50" height="30" as="geometry" />
        </mxCell>
        <mxCell id="t1T4R1C1Q-HxB1gUp0i3-128" value="(0, N)" style="text;html=1;align=center;verticalAlign=middle;resizable=0;points=[];autosize=1;strokeColor=none;fillColor=none;labelBackgroundColor=none;rounded=0;" parent="1" vertex="1">
          <mxGeometry x="970" y="689" width="50" height="30" as="geometry" />
        </mxCell>
        <mxCell id="t1T4R1C1Q-HxB1gUp0i3-129" value="(1,1)" style="text;html=1;align=center;verticalAlign=middle;resizable=0;points=[];autosize=1;strokeColor=none;fillColor=none;labelBackgroundColor=none;rounded=0;" parent="1" vertex="1">
          <mxGeometry x="965" y="587" width="50" height="30" as="geometry" />
        </mxCell>
        <mxCell id="t1T4R1C1Q-HxB1gUp0i3-130" value="(1,1)" style="text;html=1;align=center;verticalAlign=middle;resizable=0;points=[];autosize=1;strokeColor=none;fillColor=none;labelBackgroundColor=none;rounded=0;" parent="1" vertex="1">
          <mxGeometry x="805" y="614" width="50" height="30" as="geometry" />
        </mxCell>
        <mxCell id="t1T4R1C1Q-HxB1gUp0i3-131" value="(0,N)" style="text;html=1;align=center;verticalAlign=middle;resizable=0;points=[];autosize=1;strokeColor=none;fillColor=none;labelBackgroundColor=none;rounded=0;" parent="1" vertex="1">
          <mxGeometry x="795" y="521" width="50" height="30" as="geometry" />
        </mxCell>
        <mxCell id="t1T4R1C1Q-HxB1gUp0i3-132" value="(1,1)" style="text;html=1;align=center;verticalAlign=middle;resizable=0;points=[];autosize=1;strokeColor=none;fillColor=none;labelBackgroundColor=none;rounded=0;" parent="1" vertex="1">
          <mxGeometry x="1275" y="730" width="50" height="30" as="geometry" />
        </mxCell>
        <mxCell id="A0bwb3W7G9OGuWa9BE-2-59" style="edgeStyle=orthogonalEdgeStyle;shape=connector;rounded=0;orthogonalLoop=1;jettySize=auto;html=1;entryX=0.5;entryY=0;entryDx=0;entryDy=0;labelBackgroundColor=none;strokeColor=default;fontFamily=Helvetica;fontSize=11;fontColor=default;endArrow=none;endFill=0;" parent="1" source="A0bwb3W7G9OGuWa9BE-2-28" target="A0bwb3W7G9OGuWa9BE-2-55" edge="1">
          <mxGeometry relative="1" as="geometry" />
        </mxCell>
        <mxCell id="A0bwb3W7G9OGuWa9BE-2-28" value="Região" style="shape=ext;margin=3;double=1;whiteSpace=wrap;html=1;align=center;fontFamily=Helvetica;fontSize=11;fontColor=default;" parent="1" vertex="1">
          <mxGeometry x="70" y="-330" width="120" height="70" as="geometry" />
        </mxCell>
        <mxCell id="A0bwb3W7G9OGuWa9BE-2-165" style="edgeStyle=orthogonalEdgeStyle;shape=connector;rounded=0;orthogonalLoop=1;jettySize=auto;html=1;entryX=0;entryY=0.5;entryDx=0;entryDy=0;labelBackgroundColor=none;strokeColor=default;fontFamily=Helvetica;fontSize=11;fontColor=default;endArrow=none;endFill=0;" parent="1" source="A0bwb3W7G9OGuWa9BE-2-33" target="A0bwb3W7G9OGuWa9BE-2-61" edge="1">
          <mxGeometry relative="1" as="geometry" />
        </mxCell>
        <mxCell id="A0bwb3W7G9OGuWa9BE-2-33" value="Local" style="shape=ext;margin=3;double=1;whiteSpace=wrap;html=1;align=center;fontFamily=Helvetica;fontSize=11;fontColor=default;" parent="1" vertex="1">
          <mxGeometry x="70" y="-80" width="120" height="70" as="geometry" />
        </mxCell>
        <mxCell id="A0bwb3W7G9OGuWa9BE-2-48" style="edgeStyle=orthogonalEdgeStyle;shape=connector;rounded=0;orthogonalLoop=1;jettySize=auto;html=1;entryX=0;entryY=0.5;entryDx=0;entryDy=0;labelBackgroundColor=none;strokeColor=default;fontFamily=Helvetica;fontSize=11;fontColor=default;endArrow=none;endFill=0;" parent="1" source="A0bwb3W7G9OGuWa9BE-2-35" target="A0bwb3W7G9OGuWa9BE-2-47" edge="1">
          <mxGeometry relative="1" as="geometry" />
        </mxCell>
        <mxCell id="A0bwb3W7G9OGuWa9BE-2-51" style="edgeStyle=orthogonalEdgeStyle;shape=connector;rounded=0;orthogonalLoop=1;jettySize=auto;html=1;entryX=0;entryY=0.5;entryDx=0;entryDy=0;labelBackgroundColor=none;strokeColor=default;fontFamily=Helvetica;fontSize=11;fontColor=default;endArrow=none;endFill=0;" parent="1" source="A0bwb3W7G9OGuWa9BE-2-35" target="A0bwb3W7G9OGuWa9BE-2-50" edge="1">
          <mxGeometry relative="1" as="geometry">
            <Array as="points">
              <mxPoint x="460" y="80" />
            </Array>
          </mxGeometry>
        </mxCell>
        <mxCell id="A0bwb3W7G9OGuWa9BE-2-35" value="Sala" style="shape=ext;margin=3;double=1;whiteSpace=wrap;html=1;align=center;fontFamily=Helvetica;fontSize=11;fontColor=default;" parent="1" vertex="1">
          <mxGeometry x="400" y="-80" width="120" height="70" as="geometry" />
        </mxCell>
        <mxCell id="A0bwb3W7G9OGuWa9BE-2-169" style="edgeStyle=orthogonalEdgeStyle;shape=connector;rounded=0;orthogonalLoop=1;jettySize=auto;html=1;entryX=0;entryY=0.5;entryDx=0;entryDy=0;labelBackgroundColor=none;strokeColor=default;fontFamily=Helvetica;fontSize=11;fontColor=default;endArrow=none;endFill=0;" parent="1" source="A0bwb3W7G9OGuWa9BE-2-40" target="A0bwb3W7G9OGuWa9BE-2-105" edge="1">
          <mxGeometry relative="1" as="geometry">
            <Array as="points">
              <mxPoint x="960" y="860" />
            </Array>
          </mxGeometry>
        </mxCell>
        <mxCell id="A0bwb3W7G9OGuWa9BE-2-40" value="Instância" style="shape=ext;margin=3;double=1;whiteSpace=wrap;html=1;align=center;fontFamily=Helvetica;fontSize=11;fontColor=default;" parent="1" vertex="1">
          <mxGeometry x="900" y="719" width="120" height="70" as="geometry" />
        </mxCell>
        <mxCell id="A0bwb3W7G9OGuWa9BE-2-46" style="edgeStyle=orthogonalEdgeStyle;shape=link;rounded=0;orthogonalLoop=1;jettySize=auto;html=1;labelBackgroundColor=none;strokeColor=default;fontFamily=Helvetica;fontSize=11;fontColor=default;endArrow=none;endFill=0;" parent="1" source="A0bwb3W7G9OGuWa9BE-2-43" target="A0bwb3W7G9OGuWa9BE-2-40" edge="1">
          <mxGeometry relative="1" as="geometry" />
        </mxCell>
        <mxCell id="A0bwb3W7G9OGuWa9BE-2-43" value="possui" style="shape=rhombus;double=1;perimeter=rhombusPerimeter;whiteSpace=wrap;html=1;align=center;fontFamily=Helvetica;fontSize=11;fontColor=default;" parent="1" vertex="1">
          <mxGeometry x="900" y="617" width="120" height="60" as="geometry" />
        </mxCell>
        <mxCell id="A0bwb3W7G9OGuWa9BE-2-166" style="edgeStyle=orthogonalEdgeStyle;shape=connector;rounded=0;orthogonalLoop=1;jettySize=auto;html=1;entryX=0.5;entryY=0;entryDx=0;entryDy=0;labelBackgroundColor=none;strokeColor=default;fontFamily=Helvetica;fontSize=11;fontColor=default;endArrow=none;endFill=0;" parent="1" source="A0bwb3W7G9OGuWa9BE-2-47" target="t1T4R1C1Q-HxB1gUp0i3-34" edge="1">
          <mxGeometry relative="1" as="geometry" />
        </mxCell>
        <mxCell id="A0bwb3W7G9OGuWa9BE-2-47" value="abriga" style="shape=rhombus;perimeter=rhombusPerimeter;whiteSpace=wrap;html=1;align=center;fontFamily=Helvetica;fontSize=11;fontColor=default;" parent="1" vertex="1">
          <mxGeometry x="600" y="-75" width="120" height="60" as="geometry" />
        </mxCell>
        <mxCell id="A0bwb3W7G9OGuWa9BE-2-167" style="edgeStyle=orthogonalEdgeStyle;shape=connector;rounded=0;orthogonalLoop=1;jettySize=auto;html=1;entryX=0.5;entryY=0;entryDx=0;entryDy=0;labelBackgroundColor=none;strokeColor=default;fontFamily=Helvetica;fontSize=11;fontColor=default;endArrow=none;endFill=0;" parent="1" source="A0bwb3W7G9OGuWa9BE-2-50" target="t1T4R1C1Q-HxB1gUp0i3-33" edge="1">
          <mxGeometry relative="1" as="geometry" />
        </mxCell>
        <mxCell id="A0bwb3W7G9OGuWa9BE-2-50" value="abriga" style="shape=rhombus;perimeter=rhombusPerimeter;whiteSpace=wrap;html=1;align=center;fontFamily=Helvetica;fontSize=11;fontColor=default;" parent="1" vertex="1">
          <mxGeometry x="610" y="50" width="120" height="60" as="geometry" />
        </mxCell>
        <mxCell id="A0bwb3W7G9OGuWa9BE-2-60" style="edgeStyle=orthogonalEdgeStyle;shape=link;rounded=0;orthogonalLoop=1;jettySize=auto;html=1;labelBackgroundColor=none;strokeColor=default;fontFamily=Helvetica;fontSize=11;fontColor=default;endArrow=none;endFill=0;" parent="1" source="A0bwb3W7G9OGuWa9BE-2-55" target="A0bwb3W7G9OGuWa9BE-2-33" edge="1">
          <mxGeometry relative="1" as="geometry" />
        </mxCell>
        <mxCell id="A0bwb3W7G9OGuWa9BE-2-55" value="possui" style="shape=rhombus;double=1;perimeter=rhombusPerimeter;whiteSpace=wrap;html=1;align=center;fontFamily=Helvetica;fontSize=11;fontColor=default;" parent="1" vertex="1">
          <mxGeometry x="70" y="-202" width="120" height="60" as="geometry" />
        </mxCell>
        <mxCell id="A0bwb3W7G9OGuWa9BE-2-58" style="edgeStyle=orthogonalEdgeStyle;shape=link;rounded=0;orthogonalLoop=1;jettySize=auto;html=1;entryX=0.5;entryY=0;entryDx=0;entryDy=0;labelBackgroundColor=none;strokeColor=default;fontFamily=Helvetica;fontSize=11;fontColor=default;endArrow=none;endFill=0;" parent="1" source="A0bwb3W7G9OGuWa9BE-2-56" target="A0bwb3W7G9OGuWa9BE-2-28" edge="1">
          <mxGeometry relative="1" as="geometry" />
        </mxCell>
        <mxCell id="A0bwb3W7G9OGuWa9BE-2-56" value="possui" style="shape=rhombus;double=1;perimeter=rhombusPerimeter;whiteSpace=wrap;html=1;align=center;fontFamily=Helvetica;fontSize=11;fontColor=default;" parent="1" vertex="1">
          <mxGeometry x="70" y="-470" width="120" height="60" as="geometry" />
        </mxCell>
        <mxCell id="A0bwb3W7G9OGuWa9BE-2-63" style="edgeStyle=orthogonalEdgeStyle;shape=link;rounded=0;orthogonalLoop=1;jettySize=auto;html=1;entryX=0;entryY=0.5;entryDx=0;entryDy=0;labelBackgroundColor=none;strokeColor=default;fontFamily=Helvetica;fontSize=11;fontColor=default;endArrow=none;endFill=0;" parent="1" source="A0bwb3W7G9OGuWa9BE-2-61" target="A0bwb3W7G9OGuWa9BE-2-35" edge="1">
          <mxGeometry relative="1" as="geometry" />
        </mxCell>
        <mxCell id="A0bwb3W7G9OGuWa9BE-2-61" value="possui" style="shape=rhombus;double=1;perimeter=rhombusPerimeter;whiteSpace=wrap;html=1;align=center;fontFamily=Helvetica;fontSize=11;fontColor=default;" parent="1" vertex="1">
          <mxGeometry x="250" y="-75" width="120" height="60" as="geometry" />
        </mxCell>
        <mxCell id="A0bwb3W7G9OGuWa9BE-2-151" style="edgeStyle=orthogonalEdgeStyle;shape=connector;rounded=0;orthogonalLoop=1;jettySize=auto;html=1;entryX=0.5;entryY=0;entryDx=0;entryDy=0;labelBackgroundColor=none;strokeColor=default;fontFamily=Helvetica;fontSize=11;fontColor=default;endArrow=none;endFill=0;" parent="1" source="A0bwb3W7G9OGuWa9BE-2-65" target="t1T4R1C1Q-HxB1gUp0i3-44" edge="1">
          <mxGeometry relative="1" as="geometry" />
        </mxCell>
        <mxCell id="A0bwb3W7G9OGuWa9BE-2-65" value="pertence a" style="shape=rhombus;perimeter=rhombusPerimeter;whiteSpace=wrap;html=1;align=center;fontFamily=Helvetica;fontSize=11;fontColor=default;" parent="1" vertex="1">
          <mxGeometry x="735" y="554" width="120" height="60" as="geometry" />
        </mxCell>
        <mxCell id="A0bwb3W7G9OGuWa9BE-2-152" style="edgeStyle=orthogonalEdgeStyle;shape=connector;rounded=0;orthogonalLoop=1;jettySize=auto;html=1;entryX=0.5;entryY=0;entryDx=0;entryDy=0;labelBackgroundColor=none;strokeColor=default;fontFamily=Helvetica;fontSize=11;fontColor=default;endArrow=none;endFill=0;" parent="1" source="A0bwb3W7G9OGuWa9BE-2-77" target="A0bwb3W7G9OGuWa9BE-2-86" edge="1">
          <mxGeometry relative="1" as="geometry" />
        </mxCell>
        <mxCell id="A0bwb3W7G9OGuWa9BE-2-77" value="Besta" style="rounded=0;whiteSpace=wrap;html=1;labelBackgroundColor=none;" parent="1" vertex="1">
          <mxGeometry x="350" y="461" width="120" height="60" as="geometry" />
        </mxCell>
        <mxCell id="A0bwb3W7G9OGuWa9BE-2-89" style="edgeStyle=orthogonalEdgeStyle;shape=connector;rounded=0;orthogonalLoop=1;jettySize=auto;html=1;entryX=0.5;entryY=0;entryDx=0;entryDy=0;labelBackgroundColor=none;strokeColor=default;fontFamily=Helvetica;fontSize=11;fontColor=default;endArrow=none;endFill=0;" parent="1" source="A0bwb3W7G9OGuWa9BE-2-86" target="A0bwb3W7G9OGuWa9BE-2-87" edge="1">
          <mxGeometry relative="1" as="geometry" />
        </mxCell>
        <mxCell id="A0bwb3W7G9OGuWa9BE-2-86" value="possui" style="shape=rhombus;perimeter=rhombusPerimeter;whiteSpace=wrap;html=1;align=center;fontFamily=Helvetica;fontSize=11;fontColor=default;" parent="1" vertex="1">
          <mxGeometry x="350" y="551" width="120" height="60" as="geometry" />
        </mxCell>
        <mxCell id="A0bwb3W7G9OGuWa9BE-2-87" value="Golpes" style="rounded=0;whiteSpace=wrap;html=1;labelBackgroundColor=none;" parent="1" vertex="1">
          <mxGeometry x="350" y="651" width="120" height="60" as="geometry" />
        </mxCell>
        <mxCell id="A0bwb3W7G9OGuWa9BE-2-96" style="edgeStyle=orthogonalEdgeStyle;shape=connector;rounded=0;orthogonalLoop=1;jettySize=auto;html=1;entryX=0;entryY=0.5;entryDx=0;entryDy=0;labelBackgroundColor=none;strokeColor=default;fontFamily=Helvetica;fontSize=11;fontColor=default;endArrow=none;endFill=0;" parent="1" source="A0bwb3W7G9OGuWa9BE-2-94" target="t1T4R1C1Q-HxB1gUp0i3-48" edge="1">
          <mxGeometry relative="1" as="geometry" />
        </mxCell>
        <mxCell id="A0bwb3W7G9OGuWa9BE-2-94" value="possui" style="shape=rhombus;perimeter=rhombusPerimeter;whiteSpace=wrap;html=1;align=center;fontFamily=Helvetica;fontSize=11;fontColor=default;" parent="1" vertex="1">
          <mxGeometry x="1165" y="730" width="120" height="60" as="geometry" />
        </mxCell>
        <mxCell id="A0bwb3W7G9OGuWa9BE-2-97" value="(1,1)" style="text;html=1;align=center;verticalAlign=middle;resizable=0;points=[];autosize=1;strokeColor=none;fillColor=none;labelBackgroundColor=none;rounded=0;" parent="1" vertex="1">
          <mxGeometry x="1130" y="730" width="50" height="30" as="geometry" />
        </mxCell>
        <mxCell id="A0bwb3W7G9OGuWa9BE-2-107" style="edgeStyle=orthogonalEdgeStyle;shape=connector;rounded=0;orthogonalLoop=1;jettySize=auto;html=1;entryX=0.5;entryY=1;entryDx=0;entryDy=0;labelBackgroundColor=none;strokeColor=default;fontFamily=Helvetica;fontSize=11;fontColor=default;endArrow=none;endFill=0;" parent="1" source="A0bwb3W7G9OGuWa9BE-2-105" target="t1T4R1C1Q-HxB1gUp0i3-48" edge="1">
          <mxGeometry relative="1" as="geometry" />
        </mxCell>
        <mxCell id="A0bwb3W7G9OGuWa9BE-2-105" value="possui" style="shape=rhombus;perimeter=rhombusPerimeter;whiteSpace=wrap;html=1;align=center;fontFamily=Helvetica;fontSize=11;fontColor=default;" parent="1" vertex="1">
          <mxGeometry x="1165" y="830" width="120" height="60" as="geometry" />
        </mxCell>
        <mxCell id="A0bwb3W7G9OGuWa9BE-2-116" style="edgeStyle=orthogonalEdgeStyle;shape=connector;rounded=0;orthogonalLoop=1;jettySize=auto;html=1;entryX=0.5;entryY=0;entryDx=0;entryDy=0;labelBackgroundColor=none;strokeColor=default;fontFamily=Helvetica;fontSize=11;fontColor=default;endArrow=none;endFill=0;" parent="1" source="A0bwb3W7G9OGuWa9BE-2-114" target="t1T4R1C1Q-HxB1gUp0i3-59" edge="1">
          <mxGeometry relative="1" as="geometry">
            <Array as="points">
              <mxPoint x="1640" y="1160" />
              <mxPoint x="1440" y="1160" />
            </Array>
          </mxGeometry>
        </mxCell>
        <mxCell id="A0bwb3W7G9OGuWa9BE-2-118" style="edgeStyle=orthogonalEdgeStyle;shape=connector;rounded=0;orthogonalLoop=1;jettySize=auto;html=1;entryX=0.5;entryY=0;entryDx=0;entryDy=0;labelBackgroundColor=none;strokeColor=default;fontFamily=Helvetica;fontSize=11;fontColor=default;endArrow=none;endFill=0;" parent="1" source="A0bwb3W7G9OGuWa9BE-2-114" target="t1T4R1C1Q-HxB1gUp0i3-47" edge="1">
          <mxGeometry relative="1" as="geometry">
            <Array as="points">
              <mxPoint x="1640" y="1160" />
              <mxPoint x="1790" y="1160" />
            </Array>
          </mxGeometry>
        </mxCell>
        <mxCell id="A0bwb3W7G9OGuWa9BE-2-114" value="" style="verticalLabelPosition=bottom;verticalAlign=top;html=1;shape=mxgraph.basic.acute_triangle;dx=0.5;fontFamily=Helvetica;fontSize=11;fontColor=default;" parent="1" vertex="1">
          <mxGeometry x="1605" y="1060" width="70" height="50" as="geometry" />
        </mxCell>
        <mxCell id="A0bwb3W7G9OGuWa9BE-2-119" value="T, E" style="text;html=1;align=center;verticalAlign=middle;resizable=0;points=[];autosize=1;strokeColor=none;fillColor=none;fontSize=11;fontFamily=Helvetica;fontColor=default;" parent="1" vertex="1">
          <mxGeometry x="1620" y="1080" width="40" height="30" as="geometry" />
        </mxCell>
        <mxCell id="A0bwb3W7G9OGuWa9BE-2-120" value="possui" style="shape=rhombus;perimeter=rhombusPerimeter;whiteSpace=wrap;html=1;align=center;fontFamily=Helvetica;fontSize=11;fontColor=default;" parent="1" vertex="1">
          <mxGeometry x="1380" y="1310" width="120" height="60" as="geometry" />
        </mxCell>
        <mxCell id="A0bwb3W7G9OGuWa9BE-2-124" style="edgeStyle=orthogonalEdgeStyle;shape=connector;rounded=0;orthogonalLoop=1;jettySize=auto;html=1;entryX=0.5;entryY=1;entryDx=0;entryDy=0;labelBackgroundColor=none;strokeColor=default;fontFamily=Helvetica;fontSize=11;fontColor=default;endArrow=none;endFill=0;" parent="1" source="A0bwb3W7G9OGuWa9BE-2-123" target="t1T4R1C1Q-HxB1gUp0i3-47" edge="1">
          <mxGeometry relative="1" as="geometry" />
        </mxCell>
        <mxCell id="A0bwb3W7G9OGuWa9BE-2-125" style="edgeStyle=orthogonalEdgeStyle;shape=connector;rounded=0;orthogonalLoop=1;jettySize=auto;html=1;entryX=0.5;entryY=0;entryDx=0;entryDy=0;labelBackgroundColor=none;strokeColor=default;fontFamily=Helvetica;fontSize=11;fontColor=default;endArrow=none;endFill=0;" parent="1" source="A0bwb3W7G9OGuWa9BE-2-123" target="t1T4R1C1Q-HxB1gUp0i3-73" edge="1">
          <mxGeometry relative="1" as="geometry" />
        </mxCell>
        <mxCell id="A0bwb3W7G9OGuWa9BE-2-123" value="possui" style="shape=rhombus;perimeter=rhombusPerimeter;whiteSpace=wrap;html=1;align=center;fontFamily=Helvetica;fontSize=11;fontColor=default;" parent="1" vertex="1">
          <mxGeometry x="1730" y="1310" width="120" height="60" as="geometry" />
        </mxCell>
        <mxCell id="A0bwb3W7G9OGuWa9BE-2-126" value="(0, 2)" style="text;html=1;align=center;verticalAlign=middle;resizable=0;points=[];autosize=1;strokeColor=none;fillColor=none;fontSize=11;fontFamily=Helvetica;fontColor=default;" parent="1" vertex="1">
          <mxGeometry x="1795" y="1388" width="50" height="30" as="geometry" />
        </mxCell>
        <mxCell id="A0bwb3W7G9OGuWa9BE-2-127" value="(0, 2)" style="text;html=1;align=center;verticalAlign=middle;resizable=0;points=[];autosize=1;strokeColor=none;fillColor=none;fontSize=11;fontFamily=Helvetica;fontColor=default;" parent="1" vertex="1">
          <mxGeometry x="1437.5" y="1390" width="50" height="30" as="geometry" />
        </mxCell>
        <mxCell id="A0bwb3W7G9OGuWa9BE-2-128" value="(0, N)" style="text;html=1;align=center;verticalAlign=middle;resizable=0;points=[];autosize=1;strokeColor=none;fillColor=none;fontSize=11;fontFamily=Helvetica;fontColor=default;" parent="1" vertex="1">
          <mxGeometry x="1435" y="1258" width="50" height="30" as="geometry" />
        </mxCell>
        <mxCell id="A0bwb3W7G9OGuWa9BE-2-129" value="(0, N)" style="text;html=1;align=center;verticalAlign=middle;resizable=0;points=[];autosize=1;strokeColor=none;fillColor=none;fontSize=11;fontFamily=Helvetica;fontColor=default;" parent="1" vertex="1">
          <mxGeometry x="1790" y="1250" width="50" height="30" as="geometry" />
        </mxCell>
        <mxCell id="A0bwb3W7G9OGuWa9BE-2-132" value="Instância de Item" style="shape=ext;margin=3;double=1;whiteSpace=wrap;html=1;align=center;fontFamily=Helvetica;fontSize=11;fontColor=default;" parent="1" vertex="1">
          <mxGeometry x="1950" y="955" width="120" height="70" as="geometry" />
        </mxCell>
        <mxCell id="A0bwb3W7G9OGuWa9BE-2-135" style="edgeStyle=orthogonalEdgeStyle;shape=link;rounded=0;orthogonalLoop=1;jettySize=auto;html=1;entryX=0;entryY=0.5;entryDx=0;entryDy=0;labelBackgroundColor=none;strokeColor=default;fontFamily=Helvetica;fontSize=11;fontColor=default;endArrow=none;endFill=0;" parent="1" source="A0bwb3W7G9OGuWa9BE-2-134" target="A0bwb3W7G9OGuWa9BE-2-132" edge="1">
          <mxGeometry relative="1" as="geometry" />
        </mxCell>
        <mxCell id="A0bwb3W7G9OGuWa9BE-2-134" value="possui" style="shape=rhombus;double=1;perimeter=rhombusPerimeter;whiteSpace=wrap;html=1;align=center;fontFamily=Helvetica;fontSize=11;fontColor=default;" parent="1" vertex="1">
          <mxGeometry x="1770" y="960" width="120" height="60" as="geometry" />
        </mxCell>
        <mxCell id="A0bwb3W7G9OGuWa9BE-2-140" style="edgeStyle=orthogonalEdgeStyle;shape=connector;rounded=0;orthogonalLoop=1;jettySize=auto;html=1;labelBackgroundColor=none;strokeColor=default;fontFamily=Helvetica;fontSize=11;fontColor=default;endArrow=none;endFill=0;" parent="1" source="A0bwb3W7G9OGuWa9BE-2-138" target="A0bwb3W7G9OGuWa9BE-2-132" edge="1">
          <mxGeometry relative="1" as="geometry" />
        </mxCell>
        <mxCell id="A0bwb3W7G9OGuWa9BE-2-138" value="contém" style="shape=rhombus;perimeter=rhombusPerimeter;whiteSpace=wrap;html=1;align=center;fontFamily=Helvetica;fontSize=11;fontColor=default;" parent="1" vertex="1">
          <mxGeometry x="1605" y="730" width="120" height="60" as="geometry" />
        </mxCell>
        <mxCell id="A0bwb3W7G9OGuWa9BE-2-141" value="(0, N)" style="text;html=1;align=center;verticalAlign=middle;resizable=0;points=[];autosize=1;strokeColor=none;fillColor=none;fontSize=11;fontFamily=Helvetica;fontColor=default;" parent="1" vertex="1">
          <mxGeometry x="1880" y="958" width="50" height="30" as="geometry" />
        </mxCell>
        <mxCell id="A0bwb3W7G9OGuWa9BE-2-142" value="(1,1)" style="text;html=1;align=center;verticalAlign=middle;resizable=0;points=[];autosize=1;strokeColor=none;fillColor=none;fontSize=11;fontFamily=Helvetica;fontColor=default;" parent="1" vertex="1">
          <mxGeometry x="1725" y="958" width="50" height="30" as="geometry" />
        </mxCell>
        <mxCell id="A0bwb3W7G9OGuWa9BE-2-143" value="(0, N)" style="text;html=1;align=center;verticalAlign=middle;resizable=0;points=[];autosize=1;strokeColor=none;fillColor=none;fontSize=11;fontFamily=Helvetica;fontColor=default;" parent="1" vertex="1">
          <mxGeometry x="1720" y="728" width="50" height="30" as="geometry" />
        </mxCell>
        <mxCell id="A0bwb3W7G9OGuWa9BE-2-144" value="(0, 1)" style="text;html=1;align=center;verticalAlign=middle;resizable=0;points=[];autosize=1;strokeColor=none;fillColor=none;fontSize=11;fontFamily=Helvetica;fontColor=default;" parent="1" vertex="1">
          <mxGeometry x="1570" y="730" width="50" height="30" as="geometry" />
        </mxCell>
        <mxCell id="A0bwb3W7G9OGuWa9BE-2-146" value="(1,1)" style="text;html=1;align=center;verticalAlign=middle;resizable=0;points=[];autosize=1;strokeColor=none;fillColor=none;labelBackgroundColor=none;rounded=0;" parent="1" vertex="1">
          <mxGeometry x="1265" y="830" width="50" height="30" as="geometry" />
        </mxCell>
        <mxCell id="A0bwb3W7G9OGuWa9BE-2-147" value="(1,1)" style="text;html=1;align=center;verticalAlign=middle;resizable=0;points=[];autosize=1;strokeColor=none;fillColor=none;labelBackgroundColor=none;rounded=0;" parent="1" vertex="1">
          <mxGeometry x="1115" y="830" width="50" height="30" as="geometry" />
        </mxCell>
        <mxCell id="A0bwb3W7G9OGuWa9BE-2-153" value="(0, N)" style="text;html=1;align=center;verticalAlign=middle;resizable=0;points=[];autosize=1;strokeColor=none;fillColor=none;fontSize=11;fontFamily=Helvetica;fontColor=default;" parent="1" vertex="1">
          <mxGeometry x="410" y="521" width="50" height="30" as="geometry" />
        </mxCell>
        <mxCell id="A0bwb3W7G9OGuWa9BE-2-154" value="(0, N)" style="text;html=1;align=center;verticalAlign=middle;resizable=0;points=[];autosize=1;strokeColor=none;fillColor=none;fontSize=11;fontFamily=Helvetica;fontColor=default;" parent="1" vertex="1">
          <mxGeometry x="415" y="622" width="50" height="30" as="geometry" />
        </mxCell>
        <mxCell id="A0bwb3W7G9OGuWa9BE-2-155" value="" style="verticalLabelPosition=bottom;verticalAlign=top;html=1;shape=mxgraph.basic.acute_triangle;dx=0.5;fontFamily=Helvetica;fontSize=11;fontColor=default;" parent="1" vertex="1">
          <mxGeometry x="590" y="270" width="70" height="50" as="geometry" />
        </mxCell>
        <mxCell id="A0bwb3W7G9OGuWa9BE-2-161" style="edgeStyle=orthogonalEdgeStyle;shape=connector;rounded=0;orthogonalLoop=1;jettySize=auto;html=1;entryX=0.5;entryY=0;entryDx=0;entryDy=0;labelBackgroundColor=none;strokeColor=default;fontFamily=Helvetica;fontSize=11;fontColor=default;endArrow=none;endFill=0;" parent="1" source="A0bwb3W7G9OGuWa9BE-2-156" target="t1T4R1C1Q-HxB1gUp0i3-29" edge="1">
          <mxGeometry relative="1" as="geometry">
            <Array as="points">
              <mxPoint x="625" y="380" />
              <mxPoint x="795" y="380" />
            </Array>
          </mxGeometry>
        </mxCell>
        <mxCell id="A0bwb3W7G9OGuWa9BE-2-162" style="edgeStyle=orthogonalEdgeStyle;shape=connector;rounded=0;orthogonalLoop=1;jettySize=auto;html=1;entryX=0.5;entryY=0;entryDx=0;entryDy=0;labelBackgroundColor=none;strokeColor=default;fontFamily=Helvetica;fontSize=11;fontColor=default;endArrow=none;endFill=0;" parent="1" source="A0bwb3W7G9OGuWa9BE-2-156" target="A0bwb3W7G9OGuWa9BE-2-77" edge="1">
          <mxGeometry relative="1" as="geometry">
            <Array as="points">
              <mxPoint x="625" y="380" />
              <mxPoint x="410" y="380" />
            </Array>
          </mxGeometry>
        </mxCell>
        <mxCell id="A0bwb3W7G9OGuWa9BE-2-156" value="T, E" style="text;html=1;align=center;verticalAlign=middle;resizable=0;points=[];autosize=1;strokeColor=none;fillColor=none;fontSize=11;fontFamily=Helvetica;fontColor=default;" parent="1" vertex="1">
          <mxGeometry x="605" y="290" width="40" height="30" as="geometry" />
        </mxCell>
        <mxCell id="A0bwb3W7G9OGuWa9BE-2-172" value="" style="endArrow=none;html=1;rounded=1;labelBackgroundColor=none;strokeColor=default;fontFamily=Helvetica;fontSize=11;fontColor=default;shape=connector;" parent="1" edge="1">
          <mxGeometry width="50" height="50" relative="1" as="geometry">
            <mxPoint x="940" y="491" as="sourcePoint" />
            <mxPoint x="980" y="490" as="targetPoint" />
            <Array as="points">
              <mxPoint x="960" y="470" />
            </Array>
          </mxGeometry>
        </mxCell>
        <mxCell id="A0bwb3W7G9OGuWa9BE-2-176" style="edgeStyle=orthogonalEdgeStyle;shape=connector;rounded=0;orthogonalLoop=1;jettySize=auto;html=1;labelBackgroundColor=none;strokeColor=default;fontFamily=Helvetica;fontSize=11;fontColor=default;endArrow=none;endFill=0;" parent="1" source="A0bwb3W7G9OGuWa9BE-2-175" edge="1">
          <mxGeometry relative="1" as="geometry">
            <mxPoint x="980" y="490" as="targetPoint" />
            <Array as="points">
              <mxPoint x="1090" y="490" />
            </Array>
          </mxGeometry>
        </mxCell>
        <mxCell id="A0bwb3W7G9OGuWa9BE-2-177" style="edgeStyle=orthogonalEdgeStyle;shape=connector;rounded=0;orthogonalLoop=1;jettySize=auto;html=1;entryX=0.25;entryY=1;entryDx=0;entryDy=0;labelBackgroundColor=none;strokeColor=default;fontFamily=Helvetica;fontSize=11;fontColor=default;endArrow=none;endFill=0;" parent="1" source="A0bwb3W7G9OGuWa9BE-2-175" target="t1T4R1C1Q-HxB1gUp0i3-34" edge="1">
          <mxGeometry relative="1" as="geometry" />
        </mxCell>
        <mxCell id="A0bwb3W7G9OGuWa9BE-2-175" value="é" style="shape=rhombus;perimeter=rhombusPerimeter;whiteSpace=wrap;html=1;align=center;fontFamily=Helvetica;fontSize=11;fontColor=default;" parent="1" vertex="1">
          <mxGeometry x="1030" y="270" width="120" height="60" as="geometry" />
        </mxCell>
        <mxCell id="A0bwb3W7G9OGuWa9BE-2-178" value="(1,1)" style="text;html=1;align=center;verticalAlign=middle;resizable=0;points=[];autosize=1;strokeColor=none;fillColor=none;fontSize=11;fontFamily=Helvetica;fontColor=default;" parent="1" vertex="1">
          <mxGeometry x="1075" y="179" width="50" height="30" as="geometry" />
        </mxCell>
        <mxCell id="A0bwb3W7G9OGuWa9BE-2-179" value="(1,1)" style="text;html=1;align=center;verticalAlign=middle;resizable=0;points=[];autosize=1;strokeColor=none;fillColor=none;fontSize=11;fontFamily=Helvetica;fontColor=default;" parent="1" vertex="1">
          <mxGeometry x="850" y="461" width="50" height="30" as="geometry" />
        </mxCell>
      </root>
    </mxGraphModel>
  </diagram>
</mxfile>
